<svg xmlns="http://www.w3.org/2000/svg" xmlns:xlink="http://www.w3.org/1999/xlink" x="0" y="0" width="950.6000366210938" height="529.2000122070312" style="
        width:950.6000366210938px;
        height:529.2000122070312px;
        background: #FFF;
        fill: none;
">
        
        
        <svg xmlns="http://www.w3.org/2000/svg" class="role-diagram-draw-area"><g class="shapes-region" style="stroke: black; fill: none;"><g class="arrow-line"><path class="connection real" stroke-dasharray="1.125 3.35" d="  M880,450 L540,390" style="stroke: rgb(0, 0, 0); stroke-width: 1; fill: none; fill-opacity: 1;"/></g><g class="arrow-line"><path class="connection real" stroke-dasharray="1.125 3.35" d="  M768,340 L510,300" style="stroke: rgb(0, 0, 0); stroke-width: 1; fill: none; fill-opacity: 1;"/></g><g class="arrow-line"><path class="connection real" stroke-dasharray="1.125 3.35" d="  M700,250 L580,250" style="stroke: rgb(0, 0, 0); stroke-width: 1; fill: none; fill-opacity: 1;"/></g><g class="arrow-line"><path class="connection real" stroke-dasharray="1.125 3.35" d="  M670,140 L550,260" style="stroke: rgb(0, 0, 0); stroke-width: 1; fill: none; fill-opacity: 1;"/></g><g class="arrow-line"><path class="connection real" stroke-dasharray="1.125 3.35" d="  M630,40 L530,240" style="stroke: rgb(0, 0, 0); stroke-width: 1; fill: none; fill-opacity: 1;"/></g><g class="arrow-line"><path class="connection real" stroke-dasharray="1.125 3.35" d="  M470,50 L480,240" style="stroke: rgb(0, 0, 0); stroke-width: 1; fill: none; fill-opacity: 1;"/></g><g class="composite-shape"><defs><!-- react-text: 52830 --> <!-- /react-text --><filter id="_bsd2g6ur5id9" height="150%" width="150%" filterUnits="userSpaceOnUse"><feGaussianBlur in="SourceGraphic" stdDeviation="0"/><feOffset dx="2" dy="2" result="offsetblur"/><feFlood flood-color="rgb(128,128,128)" flood-opacity="1"/><feComposite in2="offsetblur" operator="in"/><feMerge><feMergeNode/><feMergeNode in="SourceGraphic"/></feMerge></filter></defs><path class="real" d=" M20,38 C20,33.58 23.58,30 28,30 L152,30 C156.42,30 160,33.58 160,38 L160,282 C160,286.42 156.42,290 152,290 L28,290 C23.58,290 20,286.42 20,282 Z" style="stroke-width: 1; stroke: rgb(0, 0, 0); fill: rgb(255, 247, 136); fill-opacity: 1; filter: url(&quot;#_bsd2g6ur5id9&quot;);"/></g><g class="composite-shape"><path class="real" d=" M30,70 C30,70 30,70 30,70 L150,70 C150,70 150,70 150,70 L150,180 C150,180 150,180 150,180 L30,180 C30,180 30,180 30,180 Z" style="stroke-width: 1; stroke: rgb(0, 0, 0); fill: rgb(255, 255, 255); fill-opacity: 1;"/></g><g class="composite-shape"><defs><!-- react-text: 52844 --> <!-- /react-text --><filter id="_bsd9qkmdvwox" height="150%" width="150%" filterUnits="userSpaceOnUse"><feGaussianBlur in="SourceGraphic" stdDeviation="0"/><feOffset dx="2" dy="2" result="offsetblur"/><feFlood flood-color="rgb(128,128,128)" flood-opacity="1"/><feComposite in2="offsetblur" operator="in"/><feMerge><feMergeNode/><feMergeNode in="SourceGraphic"/></feMerge></filter></defs><path class="real" d=" M40,338 C40,333.58 43.58,330 48,330 L202,330 C206.42,330 210,333.58 210,338 L210,442 C210,446.42 206.42,450 202,450 L48,450 C43.58,450 40,446.42 40,442 Z" style="stroke-width: 1; stroke: rgb(0, 0, 0); fill: rgb(216, 236, 254); fill-opacity: 1; filter: url(&quot;#_bsd9qkmdvwox&quot;);"/></g><g class="composite-shape"><path class="real" d=" M40,190 C40,190 40,190 40,190 L140,190 C140,190 140,190 140,190 L140,280 C140,280 140,280 140,280 L40,280 C40,280 40,280 40,280 Z" style="stroke-width: 1; stroke: rgb(0, 0, 0); fill: rgb(255, 255, 255); fill-opacity: 1;"/></g><g class="composite-shape"><path class="real" d=" M62.58,138.24 C62.58,136.74 63.79,135.52 65.29,135.52 L73.44,135.52 C74.94,135.52 76.16,136.74 76.16,138.24 L76.16,148.6 C76.16,150.1 74.94,151.31 73.44,151.31 L65.29,151.31 C63.79,151.31 62.58,150.1 62.58,148.6 Z" style="stroke-width: 1; stroke: rgb(0, 0, 0); fill: rgb(255, 247, 136); fill-opacity: 1;"/></g><g class="composite-shape"><path class="real" d=" M82.94,143.5 C82.94,142 84.16,140.79 85.66,140.79 L93.81,140.79 C95.31,140.79 96.52,142 96.52,143.5 L96.52,159.12 C96.52,160.62 95.31,161.84 93.81,161.84 L85.66,161.84 C84.16,161.84 82.94,160.62 82.94,159.12 Z" style="stroke-width: 1; stroke: rgb(0, 0, 0); fill: rgb(255, 247, 136); fill-opacity: 1;"/></g><g class="arrow-line"><path class="connection real" stroke-dasharray="" d="  M49,140.79 L62.58,140.79" style="stroke: rgb(0, 0, 0); stroke-width: 1; fill: rgb(255, 247, 136); fill-opacity: 1;"/><g stroke="#000" fill="#000" transform="matrix(1,0,0,1,49,140.78729057312012)" style="stroke: rgb(0, 0, 0); fill: rgb(0, 0, 0); stroke-width: 1;"><circle cx="0" cy="0" r="3.35"/></g></g><g class="arrow-line"><path class="connection real" stroke-dasharray="" d="  M49,146.05 L62.58,146.05" style="stroke: rgb(0, 0, 0); stroke-width: 1; fill: rgb(255, 247, 136); fill-opacity: 1;"/><g stroke="#000" fill="#000" transform="matrix(1,0,0,1,49,146.04972076416016)" style="stroke: rgb(0, 0, 0); fill: rgb(0, 0, 0); stroke-width: 1;"><circle cx="0" cy="0" r="3.35"/></g></g><g class="arrow-line"><path class="connection real" stroke-dasharray="" d="  M76.16,146.05 L82.94,146.05" style="stroke: rgb(0, 0, 0); stroke-width: 1; fill: rgb(255, 247, 136); fill-opacity: 1;"/></g><g class="arrow-line"><path class="connection real" stroke-dasharray="" d="  M49,156.57 L82.94,156.57" style="stroke: rgb(0, 0, 0); stroke-width: 1; fill: rgb(255, 247, 136); fill-opacity: 1;"/><g stroke="#000" fill="#000" transform="matrix(1,0,0,1,49,156.57458114624023)" style="stroke: rgb(0, 0, 0); fill: rgb(0, 0, 0); stroke-width: 1;"><circle cx="0" cy="0" r="3.35"/></g></g><g class="composite-shape"><path class="real" d=" M103.31,127.72 C103.31,126.22 104.53,125 106.03,125 L114.17,125 C115.67,125 116.89,126.22 116.89,127.72 L116.89,148.6 C116.89,150.1 115.67,151.31 114.17,151.31 L106.03,151.31 C104.53,151.31 103.31,150.1 103.31,148.6 Z" style="stroke-width: 1; stroke: rgb(0, 0, 0); fill: rgb(255, 247, 136); fill-opacity: 1;"/></g><g class="arrow-line"><path class="connection real" stroke-dasharray="" d="  M96.52,146.05 L103.31,146.05" style="stroke: rgb(0, 0, 0); stroke-width: 1; fill: rgb(255, 247, 136); fill-opacity: 1;"/></g><g class="arrow-line"><path class="connection real" stroke-dasharray="" d="  M49,130.26 L103.31,130.26" style="stroke: rgb(0, 0, 0); stroke-width: 1; fill: rgb(255, 247, 136); fill-opacity: 1;"/><g stroke="#000" fill="#000" transform="matrix(1,0,0,1,49,130.26243019104004)" style="stroke: rgb(0, 0, 0); fill: rgb(0, 0, 0); stroke-width: 1;"><circle cx="0" cy="0" r="3.35"/></g></g><g class="arrow-line"><path class="connection real" stroke-dasharray="" d="  M116.89,135.52 L130.47,135.52" style="stroke: rgb(0, 0, 0); stroke-width: 1; fill: rgb(255, 247, 136); fill-opacity: 1;"/><g stroke="#000" fill="#000" transform="matrix(1,0,0,1,130.4659423828125,135.52486038208008)" style="stroke: rgb(0, 0, 0); fill: rgb(0, 0, 0); stroke-width: 1;"><circle cx="0" cy="0" r="3.35"/></g></g><g class="arrow-line"><path class="connection real" stroke-dasharray="" d="  M49,167.1 L130.47,167.1" style="stroke: rgb(0, 0, 0); stroke-width: 1; fill: rgb(255, 247, 136); fill-opacity: 1;"/><g stroke="#000" fill="#000" transform="matrix(1,0,0,1,130.4659423828125,167.0994415283203)" style="stroke: rgb(0, 0, 0); fill: rgb(0, 0, 0); stroke-width: 1;"><circle cx="0" cy="0" r="3.35"/></g><g stroke="#000" fill="#000" transform="matrix(1,0,0,1,49,167.0994415283203)" style="stroke: rgb(0, 0, 0); fill: rgb(0, 0, 0); stroke-width: 1;"><circle cx="0" cy="0" r="3.35"/></g></g><g class="composite-shape"><path class="real" d=" M50,370 C50,370 50,370 50,370 L200,370 C200,370 200,370 200,370 L200,440 C200,440 200,440 200,440 L50,440 C50,440 50,440 50,440 Z" style="stroke-width: 1; stroke: rgb(0, 0, 0); fill: rgb(255, 255, 255); fill-opacity: 1;"/></g><g class="arrow-line"><path class="connection real" stroke-dasharray="" d="  M87.74,406.73 L118.21,406.73" style="stroke: rgb(0, 0, 0); stroke-width: 1; fill: rgb(255, 255, 255); fill-opacity: 1;"/><g stroke="none" fill="#000" transform="matrix(-1,1.2246467991473532e-16,-1.2246467991473532e-16,-1,121.20592898777875,406.73154642913966)" style="stroke: none; fill: rgb(0, 0, 0); stroke-width: 1;"><path d=" M8.93,-4.29 L0,0 L8.93,4.29 Z"/></g></g><g class="composite-shape"><path class="real" d=" M68,412.42 C68,406.97 72.42,402.55 77.87,402.55 C83.32,402.55 87.74,406.97 87.74,412.42 C87.74,417.87 83.32,422.29 77.87,422.29 C72.42,422.29 68,417.87 68,412.42 Z" style="stroke-width: 1; stroke: rgb(0, 0, 0); fill: rgb(255, 255, 255); fill-opacity: 1;"/></g><g class="composite-shape"><path class="real" d=" M121.21,412.42 C121.21,406.97 125.63,402.55 131.08,402.55 C136.53,402.55 140.95,406.97 140.95,412.42 C140.95,417.87 136.53,422.29 131.08,422.29 C125.63,422.29 121.21,417.87 121.21,412.42 Z" style="stroke-width: 1; stroke: rgb(0, 0, 0); fill: rgb(255, 255, 255); fill-opacity: 1;"/></g><g class="arrow-line"><path class="connection real" stroke-dasharray="" d="  M90.74,419.28 L121.21,419.28" style="stroke: rgb(0, 0, 0); stroke-width: 1; fill: rgb(255, 255, 255); fill-opacity: 1;"/><g stroke="none" fill="#000" transform="matrix(1,0,0,1,87.7421265500011,419.28047234330626)" style="stroke: none; fill: rgb(0, 0, 0); stroke-width: 1;"><path d=" M8.93,-4.29 L0,0 L8.93,4.29 Z"/></g></g><g class="arrow-line"><path class="connection real" stroke-dasharray="" d="  M142.12,406.73 L151.67,406.73" style="stroke: rgb(0, 0, 0); stroke-width: 1; fill: rgb(255, 255, 255); fill-opacity: 1;"/><g stroke="none" fill="#000" transform="matrix(-1,1.2246467991473532e-16,-1.2246467991473532e-16,-1,154.6697314255564,406.73154642913966)" style="stroke: none; fill: rgb(0, 0, 0); stroke-width: 1;"><path d=" M8.93,-4.29 L0,0 L8.93,4.29 Z"/></g></g><g class="composite-shape"><path class="real" d=" M154.67,412.42 C154.67,406.97 159.09,402.55 164.54,402.55 C169.99,402.55 174.41,406.97 174.41,412.42 C174.41,417.87 169.99,422.29 164.54,422.29 C159.09,422.29 154.67,417.87 154.67,412.42 Z" style="stroke-width: 1; stroke: rgb(0, 0, 0); fill: rgb(255, 255, 255); fill-opacity: 1;"/></g><g class="arrow-line"><path class="connection real" stroke-dasharray="" d="  M145.12,419.28 L154.67,419.28" style="stroke: rgb(0, 0, 0); stroke-width: 1; fill: rgb(255, 255, 255); fill-opacity: 1;"/><g stroke="none" fill="#000" transform="matrix(1,0,0,1,142.1208055113898,419.28047234330626)" style="stroke: none; fill: rgb(0, 0, 0); stroke-width: 1;"><path d=" M8.93,-4.29 L0,0 L8.93,4.29 Z"/></g></g><g class="arrow-line"><path class="connection real" stroke-dasharray="" d="  M230,380 L353,380" style="stroke: rgb(128, 128, 128); stroke-opacity: 1; stroke-width: 5; fill: none; fill-opacity: 1;"/><g stroke="none" fill="rgb(128,128,128)" fill-opacity="1" transform="matrix(-1,1.2246467991473532e-16,-1.2246467991473532e-16,-1,359.99999999999994,380.00000000000006)" style="stroke: none; fill: rgb(128, 128, 128); stroke-width: 5;"><path d=" M20.54,-9.87 L0,0 L20.54,9.87 Z"/></g></g><g class="arrow-line"><path class="connection real" stroke-dasharray="" d="  M860.8,258 L873.6,283.6" style="stroke: rgb(0, 0, 0); stroke-width: 1; fill: rgb(255, 255, 255); fill-opacity: 1;"/></g><g class="composite-shape"><path class="real" d=" M867.2,283.6 C867.2,280.07 870.07,277.2 873.6,277.2 C877.13,277.2 880,280.07 880,283.6 C880,287.13 877.13,290 873.6,290 C870.07,290 867.2,287.13 867.2,283.6 Z" style="stroke-width: 1; stroke: rgb(0, 0, 0); fill: rgb(255, 255, 255); fill-opacity: 1;"/></g><g class="arrow-line"><path class="connection real" stroke-dasharray="" d="  M809.6,258 L835.2,232.4" style="stroke: rgb(0, 0, 0); stroke-width: 1; fill: rgb(184, 233, 134); fill-opacity: 1;"/></g><g class="arrow-line"><path class="connection real" stroke-dasharray="" d="  M860.8,258 L835.2,232.4" style="stroke: rgb(0, 0, 0); stroke-width: 1; fill: rgb(184, 233, 134); fill-opacity: 1;"/></g><g class="arrow-line"><path class="connection real" stroke-dasharray="" d="  M835.2,232.4 L835.2,258" style="stroke: rgb(0, 0, 0); stroke-width: 1; fill: rgb(184, 233, 134); fill-opacity: 1;"/></g><g class="arrow-line"><path class="connection real" stroke-dasharray="" d="  M796.8,283.6 L809.6,258" style="stroke: rgb(0, 0, 0); stroke-width: 1; fill: rgb(255, 255, 255); fill-opacity: 1;"/></g><g class="arrow-line"><path class="connection real" stroke-dasharray="" d="  M835.2,258 L822.4,283.6" style="stroke: rgb(0, 0, 0); stroke-width: 1; fill: rgb(184, 233, 134); fill-opacity: 1;"/></g><g class="composite-shape"><path class="real" d=" M816,283.6 C816,280.07 818.87,277.2 822.4,277.2 C825.93,277.2 828.8,280.07 828.8,283.6 C828.8,287.13 825.93,290 822.4,290 C818.87,290 816,287.13 816,283.6 Z" style="stroke-width: 1; stroke: rgb(0, 0, 0); fill: rgb(255, 255, 255); fill-opacity: 1;"/></g><g class="arrow-line"><path class="connection real" stroke-dasharray="" d="  M848,283.6 L835.2,258" style="stroke: rgb(0, 0, 0); stroke-width: 1; fill: rgb(184, 233, 134); fill-opacity: 1;"/></g><g class="composite-shape"><path class="real" d=" M854.4,258 C854.4,254.47 857.27,251.6 860.8,251.6 C864.33,251.6 867.2,254.47 867.2,258 C867.2,261.53 864.33,264.4 860.8,264.4 C857.27,264.4 854.4,261.53 854.4,258 Z" style="stroke-width: 1; stroke: rgb(0, 0, 0); fill: rgb(255, 255, 255); fill-opacity: 1;"/></g><g class="composite-shape"><path class="real" d=" M841.6,283.6 C841.6,280.07 844.47,277.2 848,277.2 C851.53,277.2 854.4,280.07 854.4,283.6 C854.4,287.13 851.53,290 848,290 C844.47,290 841.6,287.13 841.6,283.6 Z" style="stroke-width: 1; stroke: rgb(0, 0, 0); fill: rgb(255, 255, 255); fill-opacity: 1;"/></g><g class="composite-shape"><path class="real" d=" M803.2,258 C803.2,254.47 806.07,251.6 809.6,251.6 C813.13,251.6 816,254.47 816,258 C816,261.53 813.13,264.4 809.6,264.4 C806.07,264.4 803.2,261.53 803.2,258 Z" style="stroke-width: 1; stroke: rgb(0, 0, 0); fill: rgb(255, 255, 255); fill-opacity: 1;"/></g><g class="composite-shape"><path class="real" d=" M828.8,232.4 C828.8,228.87 831.67,226 835.2,226 C838.73,226 841.6,228.87 841.6,232.4 C841.6,235.93 838.73,238.8 835.2,238.8 C831.67,238.8 828.8,235.93 828.8,232.4 Z" style="stroke-width: 1; stroke: rgb(0, 0, 0); fill: rgb(214, 229, 180); fill-opacity: 1;"/></g><g class="composite-shape"><path class="real" d=" M790.4,283.6 C790.4,280.07 793.27,277.2 796.8,277.2 C800.33,277.2 803.2,280.07 803.2,283.6 C803.2,287.13 800.33,290 796.8,290 C793.27,290 790.4,287.13 790.4,283.6 Z" style="stroke-width: 1; stroke: rgb(0, 0, 0); fill: rgb(255, 255, 255); fill-opacity: 1;"/></g><g class="composite-shape"><path class="real" d=" M828.8,258 C828.8,254.47 831.67,251.6 835.2,251.6 C838.73,251.6 841.6,254.47 841.6,258 C841.6,261.53 838.73,264.4 835.2,264.4 C831.67,264.4 828.8,261.53 828.8,258 Z" style="stroke-width: 1; stroke: rgb(0, 0, 0); fill: rgb(214, 229, 180); fill-opacity: 1;"/></g><g class="arrow-line"><path class="connection real" stroke-dasharray="" d="  M180,250 L353,250" style="stroke: rgb(128, 128, 128); stroke-opacity: 1; stroke-width: 5; fill: none; fill-opacity: 1;"/><g stroke="none" fill="rgb(128,128,128)" fill-opacity="1" transform="matrix(-1,1.2246467991473532e-16,-1.2246467991473532e-16,-1,359.99999999999994,250)" style="stroke: none; fill: rgb(128, 128, 128); stroke-width: 5;"><path d=" M20.54,-9.87 L0,0 L20.54,9.87 Z"/></g></g><g class="composite-shape"><path class="real" d=" M370,201.6 L381.6,190 L590,190 L590,468.4 L578.4,480 L370,480 Z" style="stroke-width: 1; stroke: rgb(0, 0, 0); fill: rgb(239, 239, 239); fill-opacity: 1;"/><path class="real" d=" M590,190 L578.4,201.6 L370,201.6" style="stroke-width: 1; stroke: rgb(0, 0, 0); fill: none; fill-opacity: 1;"/><path class="real" d=" M578.4,201.6 L578.4,480" style="stroke-width: 1; stroke: rgb(0, 0, 0); fill: none; fill-opacity: 1;"/></g><g class="arrow-line"><path class="connection real" stroke-dasharray="" d="  M230,90 L187,90" style="stroke: rgb(128, 128, 128); stroke-opacity: 1; stroke-width: 5; fill: none; fill-opacity: 1;"/><g stroke="none" fill="rgb(128,128,128)" fill-opacity="1" transform="matrix(1,-2.4492935982947064e-16,2.4492935982947064e-16,1,180,90)" style="stroke: none; fill: rgb(128, 128, 128); stroke-width: 5;"><path d=" M20.54,-9.87 L0,0 L20.54,9.87 Z"/></g></g><g class="composite-shape"><path class="real" d=" M650,406.6 L656.6,400 L740,400 L740,423.4 L733.4,430 L650,430 Z" style="stroke-width: 1; stroke: rgb(0, 0, 0); fill: rgb(255, 255, 255); fill-opacity: 1; stroke-dasharray: 1.125, 3.35;"/><path class="real" d=" M740,400 L733.4,406.6 L650,406.6" style="stroke-width: 1; stroke: rgb(0, 0, 0); fill: none; fill-opacity: 1; stroke-dasharray: 1.125, 3.35;"/><path class="real" d=" M733.4,406.6 L733.4,430" style="stroke-width: 1; stroke: rgb(0, 0, 0); fill: none; fill-opacity: 1; stroke-dasharray: 1.125, 3.35;"/></g><g class="intersections-group"><g style="stroke: rgb(0, 0, 0); stroke-width: 1; fill: none; fill-opacity: 1;"><g/></g></g></g><g/><g><g><rect rx="0" ry="0" x="37" y="74" width="105" height="41" style="stroke: none; stroke-opacity: 1; stroke-width: 1; fill: none; fill-opacity: 1;"/></g><g><rect rx="0" ry="0" x="47" y="338" width="155" height="25" style="stroke: none; stroke-opacity: 1; stroke-width: 1; fill: none; fill-opacity: 1;"/></g><g><rect rx="0" ry="0" x="57" y="238.5" width="67" height="35" style="stroke: rgb(0, 0, 0); stroke-width: 1; fill: rgb(128, 128, 128); fill-opacity: 1;"/></g><g><rect rx="0" ry="0" x="44.5" y="39" width="91" height="25" style="stroke: none; stroke-opacity: 1; stroke-width: 1; fill: none; fill-opacity: 1;"/></g><g><rect rx="0" ry="0" x="426" y="211" width="86" height="34" style="stroke: none; stroke-opacity: 1; stroke-width: 1; fill: none; fill-opacity: 1;"/></g><g><rect rx="0" ry="0" x="394" y="251" width="143" height="25" style="stroke: rgb(0, 0, 0); stroke-width: 1; fill: rgb(255, 255, 255); fill-opacity: 1;"/></g><g><rect rx="0" ry="0" x="397" y="399.8" width="102" height="25" style="stroke: rgb(0, 0, 0); stroke-width: 1; fill: rgb(255, 255, 255); fill-opacity: 1;"/></g><g><rect rx="0" ry="0" x="386" y="325.40000000000003" width="75" height="25" style="stroke: rgb(0, 0, 0); stroke-width: 1; fill: rgb(255, 255, 255); fill-opacity: 1;"/></g><g><rect rx="0" ry="0" x="413" y="437" width="148" height="25" style="stroke: rgb(0, 0, 0); stroke-width: 1; fill: rgb(255, 255, 255); fill-opacity: 1;"/></g><g><rect rx="0" ry="0" x="417" y="288.20000000000005" width="136" height="25" style="stroke: rgb(0, 0, 0); stroke-width: 1; fill: rgb(255, 255, 255); fill-opacity: 1;"/></g><g><rect rx="0" ry="0" x="726" y="218" width="56" height="56" style="stroke: rgb(0, 0, 0); stroke-width: 1; fill: rgb(74, 74, 74); fill-opacity: 1;"/></g><g><rect rx="0" ry="0" x="796" y="346" width="106" height="46" style="stroke: rgb(0, 0, 0); stroke-width: 1; fill: rgb(74, 74, 74); fill-opacity: 1;"/></g><g><rect rx="0" ry="0" x="694" y="136.5" width="178" height="46" style="stroke: rgb(0, 0, 0); stroke-width: 1; fill: rgb(74, 74, 74); fill-opacity: 1;"/></g><g><rect rx="0" ry="0" x="658" y="55.5" width="264" height="25" style="stroke: rgb(0, 0, 0); stroke-width: 1; fill: rgb(74, 74, 74); fill-opacity: 1;"/></g><g><circle cx="630" cy="43.5" r="35.59845502265512" style="stroke: rgb(0, 0, 0); stroke-width: 1; fill: rgb(255, 255, 255); fill-opacity: 1;"/></g><g><circle cx="763.5" cy="336.5" r="36.41771546926029" style="stroke: rgb(0, 0, 0); stroke-width: 1; fill: rgb(255, 255, 255); fill-opacity: 1;"/></g><g><circle cx="671.5" cy="133.5" r="26.953663943887108" style="stroke: rgb(0, 0, 0); stroke-width: 1; fill: rgb(255, 255, 255); fill-opacity: 1;"/></g><g><circle cx="698" cy="245" r="37.48332962798263" style="stroke: rgb(0, 0, 0); stroke-width: 1; fill: rgb(255, 255, 255); fill-opacity: 1;"/></g><g><rect rx="0" ry="0" x="249" y="23" width="148" height="109" style="stroke: rgb(0, 0, 0); stroke-width: 1; fill: rgb(74, 74, 74); fill-opacity: 1;"/></g><g><rect rx="0" ry="0" x="346" y="75" width="113" height="77" style="stroke: rgb(0, 0, 0); stroke-width: 1; fill: rgb(74, 74, 74); fill-opacity: 1;"/></g><g><circle cx="473.5" cy="53.5" r="38.6846222677694" style="stroke: rgb(0, 0, 0); stroke-width: 1; fill: rgb(255, 255, 255); fill-opacity: 1;"/></g><g><rect rx="0" ry="0" x="661" y="468" width="243" height="46" style="stroke: rgb(0, 0, 0); stroke-width: 1; fill: rgb(74, 74, 74); fill-opacity: 1;"/></g><g><circle cx="894.5" cy="453" r="37.84507894033252" style="stroke: rgb(0, 0, 0); stroke-width: 1; fill: rgb(255, 255, 255); fill-opacity: 1;"/></g><g><rect rx="0" ry="0" x="652.5" y="407" width="77" height="23" style="stroke: none; stroke-opacity: 1; stroke-width: 1; fill: none; fill-opacity: 1;"/></g><g><rect rx="0" ry="0" x="432" y="362.6" width="104" height="25" style="stroke: rgb(0, 0, 0); stroke-width: 1; fill: rgb(255, 255, 255); fill-opacity: 1;"/></g></g><g/></svg>
        <svg xmlns="http://www.w3.org/2000/svg" xmlns:xlink="http://www.w3.org/1999/xlink" width="949" height="527.6000366210938" style="width:949px;height:527.6000366210938px;font-family:Asana-Math, Asana;background:#FFF;"><g><g><g><text x="40.76251220703125" y="76.99998474121094" style="white-space:pre;stroke:none;fill:rgb(0,0,0);fill-opacity:1;font-size:13.5px;font-family:Arial, Helvetica, sans-serif;font-weight:700;font-style:normal;dominant-baseline:text-before-edge;text-decoration:none solid rgb(0, 0, 0);">Function Block</text></g></g><g><g><text x="42.25" y="95.90000915527344" style="white-space:pre;stroke:none;fill:rgb(0,0,0);fill-opacity:1;font-size:13.5px;font-family:Arial, Helvetica, sans-serif;font-weight:700;font-style:normal;dominant-baseline:text-before-edge;text-decoration:none solid rgb(0, 0, 0);">Diagram (FBD)</text></g></g></g><g><g><g><text x="55.875" y="197.99998474121094" style="white-space:pre;stroke:none;fill:rgb(0,0,0);fill-opacity:1;font-size:13.5px;font-family:Arial, Helvetica, sans-serif;font-weight:700;font-style:normal;dominant-baseline:text-before-edge;text-decoration:none solid rgb(0, 0, 0);">Structured</text></g></g><g><g><text x="61.625" y="216.90000915527344" style="white-space:pre;stroke:none;fill:rgb(0,0,0);fill-opacity:1;font-size:13.5px;font-family:Arial, Helvetica, sans-serif;font-weight:700;font-style:normal;dominant-baseline:text-before-edge;text-decoration:none solid rgb(0, 0, 0);">Text (ST)</text></g></g></g><g><g><g><text x="50.73126220703125" y="341.3999786376953" style="white-space:pre;stroke:none;fill:rgb(0,0,0);fill-opacity:1;font-size:15px;font-family:Arial, Helvetica, sans-serif;font-weight:700;font-style:normal;dominant-baseline:text-before-edge;text-decoration:none solid rgb(0, 0, 0);">Design Specification</text></g></g></g><g><g><g><text x="91.6875" y="394.59999084472656" style="white-space:pre;stroke:none;fill:rgb(0,0,0);fill-opacity:1;font-size:7.5px;font-family:Arial, Helvetica, sans-serif;font-weight:400;font-style:normal;dominant-baseline:text-before-edge;text-decoration:none solid rgb(0, 0, 0);">A &amp; B</text></g></g></g><g><g><g><text x="82.47500610351562" y="424.3625030517578" style="white-space:pre;stroke:none;fill:rgb(0,0,0);fill-opacity:1;font-size:7.5px;font-family:Arial, Helvetica, sans-serif;font-weight:400;font-style:normal;dominant-baseline:text-before-edge;text-decoration:none solid rgb(0, 0, 0);">C == (D &amp; E)</text></g></g></g><g><g><g><text x="60.706268310546875" y="242.59999084472656" style="white-space:pre;stroke:none;fill:rgb(255,255,255);fill-opacity:1;font-size:7.35px;font-family:Arial, Helvetica, sans-serif;font-weight:400;font-style:italic;dominant-baseline:text-before-edge;text-decoration:none solid rgb(255, 255, 255);">PROGRAM pou</text></g></g><g><g><text x="60.706268310546875" y="249.9499969482422" style="white-space:pre;stroke:none;fill:rgb(255,255,255);fill-opacity:1;font-size:10.5px;font-family:Arial, Helvetica, sans-serif;font-weight:400;font-style:normal;dominant-baseline:text-before-edge;text-decoration:none solid rgb(255, 255, 255);">...</text></g></g><g><g><text x="60.706268310546875" y="263.65000915527344" style="white-space:pre;stroke:none;fill:rgb(255,255,255);fill-opacity:1;font-size:7.35px;font-family:Arial, Helvetica, sans-serif;font-weight:400;font-style:italic;dominant-baseline:text-before-edge;text-decoration:none solid rgb(255, 255, 255);">END_PROGRAM;</text></g></g></g><g><g><g><text x="48.300018310546875" y="42.399993896484375" style="white-space:pre;stroke:none;fill:rgb(0,0,0);fill-opacity:1;font-size:15px;font-family:Arial, Helvetica, sans-serif;font-weight:700;font-style:normal;dominant-baseline:text-before-edge;text-decoration:none solid rgb(0, 0, 0);">IEC 61131-3</text></g></g></g><g><g><g><text x="81.80001831054688" y="373.3999786376953" style="white-space:pre;stroke:none;fill:rgb(0,0,0);fill-opacity:1;font-size:13.5px;font-family:Arial, Helvetica, sans-serif;font-weight:700;font-style:normal;dominant-baseline:text-before-edge;text-decoration:none solid rgb(0, 0, 0);">State Diagram</text></g></g></g><g><g><g><text x="429.98126220703125" y="215.1999969482422" style="white-space:pre;stroke:none;fill:rgb(0,0,0);fill-opacity:1;font-size:21.6px;font-family:Arial, Helvetica, sans-serif;font-weight:700;font-style:normal;dominant-baseline:text-before-edge;text-decoration:none solid rgb(0, 0, 0);">PLCreX</text></g></g></g><g><g><g><text x="397.70623779296875" y="254.40000915527344" style="white-space:pre;stroke:none;fill:rgb(0,0,0);fill-opacity:1;font-size:15px;font-family:Arial, Helvetica, sans-serif;font-weight:400;font-style:normal;dominant-baseline:text-before-edge;text-decoration:none solid rgb(0, 0, 0);">FBD-to-ST Compiler</text></g></g></g><g><g><g><text x="400.79998779296875" y="403.2000274658203" style="white-space:pre;stroke:none;fill:rgb(0,0,0);fill-opacity:1;font-size:15px;font-family:Arial, Helvetica, sans-serif;font-weight:400;font-style:normal;dominant-baseline:text-before-edge;text-decoration:none solid rgb(0, 0, 0);">XML-Validator</text></g></g></g><g><g><g><text x="389.73748779296875" y="329.00001525878906" style="white-space:pre;stroke:none;fill:rgb(0,0,0);fill-opacity:1;font-size:15px;font-family:Arial, Helvetica, sans-serif;font-weight:400;font-style:normal;dominant-baseline:text-before-edge;text-decoration:none solid rgb(0, 0, 0);">ST-Parser</text></g></g></g><g><g><g><text x="416.96875" y="440.59999084472656" style="white-space:pre;stroke:none;fill:rgb(0,0,0);fill-opacity:1;font-size:15px;font-family:Arial, Helvetica, sans-serif;font-weight:400;font-style:normal;dominant-baseline:text-before-edge;text-decoration:none solid rgb(0, 0, 0);">Test-Case-Generator</text></g></g></g><g><g><g><text x="420.8062744140625" y="291.8000030517578" style="white-space:pre;stroke:none;fill:rgb(0,0,0);fill-opacity:1;font-size:15px;font-family:Arial, Helvetica, sans-serif;font-weight:400;font-style:normal;dominant-baseline:text-before-edge;text-decoration:none solid rgb(0, 0, 0);">I/O Impact Analysis</text></g></g></g><g><g><g><text x="729.800048828125" y="218.90000915527344" style="white-space:pre;stroke:none;fill:rgb(255,255,255);fill-opacity:1;font-size:7.5px;font-family:Arial, Helvetica, sans-serif;font-weight:400;font-style:italic;dominant-baseline:text-before-edge;text-decoration:none solid rgb(255, 255, 255);">start</text></g></g><g><g><text x="729.800048828125" y="226.40000915527344" style="white-space:pre;stroke:none;fill:rgb(255,255,255);fill-opacity:1;font-size:7.5px;font-family:Arial, Helvetica, sans-serif;font-weight:400;font-style:italic;dominant-baseline:text-before-edge;text-decoration:none solid rgb(255, 255, 255);">  module</text></g></g><g><g><text x="729.800048828125" y="233.90000915527344" style="white-space:pre;stroke:none;fill:rgb(255,255,255);fill-opacity:1;font-size:7.5px;font-family:Arial, Helvetica, sans-serif;font-weight:400;font-style:italic;dominant-baseline:text-before-edge;text-decoration:none solid rgb(255, 255, 255);">    name    pou</text></g></g><g><g><text x="729.800048828125" y="241.40000915527344" style="white-space:pre;stroke:none;fill:rgb(255,255,255);fill-opacity:1;font-size:7.5px;font-family:Arial, Helvetica, sans-serif;font-weight:400;font-style:italic;dominant-baseline:text-before-edge;text-decoration:none solid rgb(255, 255, 255);">    idcl</text></g></g><g><g><text x="729.800048828125" y="248.90000915527344" style="white-space:pre;stroke:none;fill:rgb(255,255,255);fill-opacity:1;font-size:7.5px;font-family:Arial, Helvetica, sans-serif;font-weight:400;font-style:italic;dominant-baseline:text-before-edge;text-decoration:none solid rgb(255, 255, 255);">      var_input</text></g></g><g><g><text x="729.800048828125" y="256.40000915527344" style="white-space:pre;stroke:none;fill:rgb(255,255,255);fill-opacity:1;font-size:7.5px;font-family:Arial, Helvetica, sans-serif;font-weight:400;font-style:italic;dominant-baseline:text-before-edge;text-decoration:none solid rgb(255, 255, 255);">        dcllist</text></g></g><g><g><text x="729.800048828125" y="263.90000915527344" style="white-space:pre;stroke:none;fill:rgb(255,255,255);fill-opacity:1;font-size:7.5px;font-family:Arial, Helvetica, sans-serif;font-weight:400;font-style:italic;dominant-baseline:text-before-edge;text-decoration:none solid rgb(255, 255, 255);">...</text></g></g></g><g><g><g><text x="800.018798828125" y="350.3000030517578" style="white-space:pre;stroke:none;fill:rgb(255,255,255);fill-opacity:1;font-size:7.35px;font-family:Arial, Helvetica, sans-serif;font-weight:400;font-style:normal;dominant-baseline:text-before-edge;text-decoration:none solid rgb(255, 255, 255);">1: (and A (not D) B C (not E))</text></g></g><g><g><text x="800.018798828125" y="360.84999084472656" style="white-space:pre;stroke:none;fill:rgb(255,255,255);fill-opacity:1;font-size:7.35px;font-family:Arial, Helvetica, sans-serif;font-weight:400;font-style:normal;dominant-baseline:text-before-edge;text-decoration:none solid rgb(255, 255, 255);">2: (and (not B) (not E) (not C))</text></g></g><g><g><text x="800.018798828125" y="371.3999786376953" style="white-space:pre;stroke:none;fill:rgb(255,255,255);fill-opacity:1;font-size:7.35px;font-family:Arial, Helvetica, sans-serif;font-weight:400;font-style:normal;dominant-baseline:text-before-edge;text-decoration:none solid rgb(255, 255, 255);">3: (and (not D) E (not C))</text></g></g><g><g><text x="800.018798828125" y="381.9500274658203" style="white-space:pre;stroke:none;fill:rgb(255,255,255);fill-opacity:1;font-size:7.35px;font-family:Arial, Helvetica, sans-serif;font-weight:400;font-style:normal;dominant-baseline:text-before-edge;text-decoration:none solid rgb(255, 255, 255);">...</text></g></g></g><g><g><g><text x="697.581298828125" y="140.8000030517578" style="white-space:pre;stroke:none;fill:rgb(255,255,255);fill-opacity:1;font-size:7.35px;font-family:Arial, Helvetica, sans-serif;font-weight:400;font-style:normal;dominant-baseline:text-before-edge;text-decoration:none solid rgb(255, 255, 255);">1: A = True, D = False, B = True, C = True, E = False</text></g></g><g><g><text x="697.581298828125" y="151.34999084472656" style="white-space:pre;stroke:none;fill:rgb(255,255,255);fill-opacity:1;font-size:7.35px;font-family:Arial, Helvetica, sans-serif;font-weight:400;font-style:normal;dominant-baseline:text-before-edge;text-decoration:none solid rgb(255, 255, 255);">2: B = False, E = False, C = False</text></g></g><g><g><text x="697.581298828125" y="161.90000915527344" style="white-space:pre;stroke:none;fill:rgb(255,255,255);fill-opacity:1;font-size:7.35px;font-family:Arial, Helvetica, sans-serif;font-weight:400;font-style:normal;dominant-baseline:text-before-edge;text-decoration:none solid rgb(255, 255, 255);">3: D = False, E = True, C = False</text></g></g><g><g><text x="697.581298828125" y="172.4499969482422" style="white-space:pre;stroke:none;fill:rgb(255,255,255);fill-opacity:1;font-size:7.35px;font-family:Arial, Helvetica, sans-serif;font-weight:400;font-style:normal;dominant-baseline:text-before-edge;text-decoration:none solid rgb(255, 255, 255);">...</text></g></g></g><g><g><g><text x="661.8250732421875" y="59.84999084472656" style="white-space:pre;stroke:none;fill:rgb(255,255,255);fill-opacity:1;font-size:7.35px;font-family:Arial, Helvetica, sans-serif;font-weight:400;font-style:normal;dominant-baseline:text-before-edge;text-decoration:none solid rgb(255, 255, 255);">xmlschema.validators.exceptions.XMLSchemaDecodeError: failed validating ...</text></g></g><g><g><text x="661.8250732421875" y="70.40000915527344" style="white-space:pre;stroke:none;fill:rgb(255,255,255);fill-opacity:1;font-size:7.35px;font-family:Arial, Helvetica, sans-serif;font-weight:400;font-style:normal;dominant-baseline:text-before-edge;text-decoration:none solid rgb(255, 255, 255);">Reason: attribute modificationDateTime= </text></g><g><text x="796.875" y="70.40000915527344" style="white-space:pre;stroke:none;fill:rgb(255,255,255);fill-opacity:1;font-size:7.35px;font-family:Arial, Helvetica, sans-serif;font-weight:400;font-style:normal;dominant-baseline:text-before-edge;text-decoration:none solid rgb(255, 255, 255);">...</text></g></g></g><g><g><g><text x="601.7999877929688" y="28.399993896484375" style="white-space:pre;stroke:none;fill:rgb(0,0,0);fill-opacity:1;font-size:12px;font-family:Arial, Helvetica, sans-serif;font-weight:700;font-style:normal;dominant-baseline:text-before-edge;text-decoration:none solid rgb(0, 0, 0);">Validation</text></g></g><g><g><text x="608.4625244140625" y="45.19999694824219" style="white-space:pre;stroke:none;fill:rgb(0,0,0);fill-opacity:1;font-size:12px;font-family:Arial, Helvetica, sans-serif;font-weight:700;font-style:normal;dominant-baseline:text-before-edge;text-decoration:none solid rgb(0, 0, 0);">Results</text></g></g></g><g><g><g><text x="741.8250732421875" y="312.90000915527344" style="white-space:pre;stroke:none;fill:rgb(0,0,0);fill-opacity:1;font-size:12px;font-family:Arial, Helvetica, sans-serif;font-weight:700;font-style:normal;dominant-baseline:text-before-edge;text-decoration:none solid rgb(0, 0, 0);">Equiva-</text></g></g><g><g><text x="748.1500244140625" y="329.7000274658203" style="white-space:pre;stroke:none;fill:rgb(0,0,0);fill-opacity:1;font-size:12px;font-family:Arial, Helvetica, sans-serif;font-weight:700;font-style:normal;dominant-baseline:text-before-edge;text-decoration:none solid rgb(0, 0, 0);">lence</text></g></g><g><g><text x="740.8125" y="346.50001525878906" style="white-space:pre;stroke:none;fill:rgb(0,0,0);fill-opacity:1;font-size:12px;font-family:Arial, Helvetica, sans-serif;font-weight:700;font-style:normal;dominant-baseline:text-before-edge;text-decoration:none solid rgb(0, 0, 0);">Classes</text></g></g></g><g><g><g><text x="659.5875244140625" y="118.40000915527344" style="white-space:pre;stroke:none;fill:rgb(0,0,0);fill-opacity:1;font-size:12px;font-family:Arial, Helvetica, sans-serif;font-weight:700;font-style:normal;dominant-baseline:text-before-edge;text-decoration:none solid rgb(0, 0, 0);">Test</text></g></g><g><g><text x="653.800048828125" y="135.1999969482422" style="white-space:pre;stroke:none;fill:rgb(0,0,0);fill-opacity:1;font-size:12px;font-family:Arial, Helvetica, sans-serif;font-weight:700;font-style:normal;dominant-baseline:text-before-edge;text-decoration:none solid rgb(0, 0, 0);">Cases</text></g></g></g><g><g><g><text x="673.800048828125" y="221.40000915527344" style="white-space:pre;stroke:none;fill:rgb(0,0,0);fill-opacity:1;font-size:12px;font-family:Arial, Helvetica, sans-serif;font-weight:700;font-style:normal;dominant-baseline:text-before-edge;text-decoration:none solid rgb(0, 0, 0);">Abstract</text></g></g><g><g><text x="678.4625244140625" y="238.1999969482422" style="white-space:pre;stroke:none;fill:rgb(0,0,0);fill-opacity:1;font-size:12px;font-family:Arial, Helvetica, sans-serif;font-weight:700;font-style:normal;dominant-baseline:text-before-edge;text-decoration:none solid rgb(0, 0, 0);">Syntax</text></g></g><g><g><text x="685.800048828125" y="254.99998474121094" style="white-space:pre;stroke:none;fill:rgb(0,0,0);fill-opacity:1;font-size:12px;font-family:Arial, Helvetica, sans-serif;font-weight:700;font-style:normal;dominant-baseline:text-before-edge;text-decoration:none solid rgb(0, 0, 0);">Tree</text></g></g></g><g><g><g><text x="252.79998779296875" y="24.04998779296875" style="white-space:pre;stroke:none;fill:rgb(214,231,164);fill-opacity:1;font-size:10.5px;font-family:Arial, Helvetica, sans-serif;font-weight:400;font-style:normal;dominant-baseline:text-before-edge;text-decoration:none solid rgb(214, 231, 164);">Forward (formal)</text></g></g><g><g><text x="252.79998779296875" y="37.75" style="white-space:pre;stroke:none;fill:rgb(255,255,255);fill-opacity:1;font-size:7.35px;font-family:Arial, Helvetica, sans-serif;font-weight:400;font-style:normal;dominant-baseline:text-before-edge;text-decoration:none solid rgb(255, 255, 255);">AND1_OUT := AND(i1,i2);</text></g></g><g><g><text x="252.79998779296875" y="48.29998779296875" style="white-space:pre;stroke:none;fill:rgb(255,255,255);fill-opacity:1;font-size:7.35px;font-family:Arial, Helvetica, sans-serif;font-weight:400;font-style:normal;dominant-baseline:text-before-edge;text-decoration:none solid rgb(255, 255, 255);">TON0(IN := AND1_OUT,PT := i3);</text></g></g><g><g><text x="252.79998779296875" y="58.84999084472656" style="white-space:pre;stroke:none;fill:rgb(255,255,255);fill-opacity:1;font-size:7.35px;font-family:Arial, Helvetica, sans-serif;font-weight:400;font-style:normal;dominant-baseline:text-before-edge;text-decoration:none solid rgb(255, 255, 255);">XOR3_OUT := XOR(AND1_OUT,TON0.Q);</text></g></g><g><g><text x="252.79998779296875" y="69.40000915527344" style="white-space:pre;stroke:none;fill:rgb(255,255,255);fill-opacity:1;font-size:7.35px;font-family:Arial, Helvetica, sans-serif;font-weight:400;font-style:normal;dominant-baseline:text-before-edge;text-decoration:none solid rgb(255, 255, 255);">o1 := XOR3_OUT;</text></g></g><g></g><g><g><text x="252.79998779296875" y="87.24998474121094" style="white-space:pre;stroke:none;fill:rgb(214,231,164);fill-opacity:1;font-size:10.5px;font-family:Arial, Helvetica, sans-serif;font-weight:400;font-style:normal;dominant-baseline:text-before-edge;text-decoration:none solid rgb(214, 231, 164);">Forward</text></g></g><g><g><text x="252.79998779296875" y="100.94999694824219" style="white-space:pre;stroke:none;fill:rgb(255,255,255);fill-opacity:1;font-size:7.35px;font-family:Arial, Helvetica, sans-serif;font-weight:400;font-style:normal;dominant-baseline:text-before-edge;text-decoration:none solid rgb(255, 255, 255);">AND1_OUT := AND(i1,i2);</text></g></g><g><g><text x="252.79998779296875" y="111.49998474121094" style="white-space:pre;stroke:none;fill:rgb(255,255,255);fill-opacity:1;font-size:7.35px;font-family:Arial, Helvetica, sans-serif;font-weight:400;font-style:normal;dominant-baseline:text-before-edge;text-decoration:none solid rgb(255, 255, 255);">TON0(AND1_OUT,i3);</text></g></g><g><g><text x="252.79998779296875" y="122.05000305175781" style="white-space:pre;stroke:none;fill:rgb(255,255,255);fill-opacity:1;font-size:7.35px;font-family:Arial, Helvetica, sans-serif;font-weight:400;font-style:normal;dominant-baseline:text-before-edge;text-decoration:none solid rgb(255, 255, 255);">XOR3_OUT := XOR(AND1_</text></g></g></g><g><g><g><text x="349.79998779296875" y="75.69999694824219" style="white-space:pre;stroke:none;fill:rgb(214,231,164);fill-opacity:1;font-size:10.5px;font-family:Arial, Helvetica, sans-serif;font-weight:400;font-style:normal;dominant-baseline:text-before-edge;text-decoration:none solid rgb(214, 231, 164);">Backward (formal)</text></g></g><g><g><text x="349.79998779296875" y="89.40000915527344" style="white-space:pre;stroke:none;fill:rgb(255,255,255);fill-opacity:1;font-size:7.35px;font-family:Arial, Helvetica, sans-serif;font-weight:400;font-style:normal;dominant-baseline:text-before-edge;text-decoration:none solid rgb(255, 255, 255);">TON0(IN := AND(i1,i2),PT := i3);</text></g></g><g><g><text x="349.79998779296875" y="99.94999694824219" style="white-space:pre;stroke:none;fill:rgb(255,255,255);fill-opacity:1;font-size:7.35px;font-family:Arial, Helvetica, sans-serif;font-weight:400;font-style:normal;dominant-baseline:text-before-edge;text-decoration:none solid rgb(255, 255, 255);">o1 := XOR(AND(i1,i2),TON0.Q);</text></g></g><g></g><g><g><text x="349.79998779296875" y="117.80000305175781" style="white-space:pre;stroke:none;fill:rgb(214,231,164);fill-opacity:1;font-size:10.5px;font-family:Arial, Helvetica, sans-serif;font-weight:400;font-style:normal;dominant-baseline:text-before-edge;text-decoration:none solid rgb(214, 231, 164);">Backward</text></g></g><g><g><text x="349.79998779296875" y="131.49998474121094" style="white-space:pre;stroke:none;fill:rgb(255,255,255);fill-opacity:1;font-size:7.35px;font-family:Arial, Helvetica, sans-serif;font-weight:400;font-style:normal;dominant-baseline:text-before-edge;text-decoration:none solid rgb(255, 255, 255);">TON0(AND(i1,i2),i3);</text></g></g><g><g><text x="349.79998779296875" y="142.0500030517578" style="white-space:pre;stroke:none;fill:rgb(255,255,255);fill-opacity:1;font-size:7.35px;font-family:Arial, Helvetica, sans-serif;font-weight:400;font-style:normal;dominant-baseline:text-before-edge;text-decoration:none solid rgb(255, 255, 255);">o1 := XOR(AND(i1,i2),TON0.Q);</text></g></g></g><g><g><g><text x="441.79998779296875" y="38.399993896484375" style="white-space:pre;stroke:none;fill:rgb(0,0,0);fill-opacity:1;font-size:12px;font-family:Arial, Helvetica, sans-serif;font-weight:700;font-style:normal;dominant-baseline:text-before-edge;text-decoration:none solid rgb(0, 0, 0);">IEC61131-3</text></g></g><g><g><text x="446.82501220703125" y="55.19999694824219" style="white-space:pre;stroke:none;fill:rgb(0,0,0);fill-opacity:1;font-size:12px;font-family:Arial, Helvetica, sans-serif;font-weight:700;font-style:normal;dominant-baseline:text-before-edge;text-decoration:none solid rgb(0, 0, 0);">ST Model</text></g></g></g><g><g><g><text x="664.65625" y="472.3000030517578" style="white-space:pre;stroke:none;fill:rgb(255,255,255);fill-opacity:1;font-size:7.35px;font-family:Arial, Helvetica, sans-serif;font-weight:400;font-style:normal;dominant-baseline:text-before-edge;text-decoration:none solid rgb(255, 255, 255);">5:8 UnusedVariable: Found unused local variable: VAR3</text></g></g><g><g><text x="664.65625" y="482.84999084472656" style="white-space:pre;stroke:none;fill:rgb(255,255,255);fill-opacity:1;font-size:7.35px;font-family:Arial, Helvetica, sans-serif;font-weight:400;font-style:normal;dominant-baseline:text-before-edge;text-decoration:none solid rgb(255, 255, 255);">8:12 ZeroDivision: Constant 19 is divided by zero!</text></g></g><g><g><text x="664.65625" y="493.3999786376953" style="white-space:pre;stroke:none;fill:rgb(255,255,255);fill-opacity:1;font-size:7.35px;font-family:Arial, Helvetica, sans-serif;font-weight:400;font-style:normal;dominant-baseline:text-before-edge;text-decoration:none solid rgb(255, 255, 255);">3:8 PLCOPEN-CP3: Variable VAR1 shall be initialized before being used</text></g></g><g><g><text x="664.65625" y="503.9500274658203" style="white-space:pre;stroke:none;fill:rgb(255,255,255);fill-opacity:1;font-size:7.35px;font-family:Arial, Helvetica, sans-serif;font-weight:400;font-style:normal;dominant-baseline:text-before-edge;text-decoration:none solid rgb(255, 255, 255);">...</text></g></g></g><g><g><g><text x="878.1375732421875" y="429.3999786376953" style="white-space:pre;stroke:none;fill:rgb(0,0,0);fill-opacity:1;font-size:12px;font-family:Arial, Helvetica, sans-serif;font-weight:700;font-style:normal;dominant-baseline:text-before-edge;text-decoration:none solid rgb(0, 0, 0);">Static</text></g></g><g><g><text x="869.800048828125" y="446.2000274658203" style="white-space:pre;stroke:none;fill:rgb(0,0,0);fill-opacity:1;font-size:12px;font-family:Arial, Helvetica, sans-serif;font-weight:700;font-style:normal;dominant-baseline:text-before-edge;text-decoration:none solid rgb(0, 0, 0);">Analysis</text></g></g><g><g><text x="872.800048828125" y="463.00001525878906" style="white-space:pre;stroke:none;fill:rgb(0,0,0);fill-opacity:1;font-size:12px;font-family:Arial, Helvetica, sans-serif;font-weight:700;font-style:normal;dominant-baseline:text-before-edge;text-decoration:none solid rgb(0, 0, 0);">Results</text></g></g></g><g><g><g><text x="656.4937744140625" y="410.3999786376953" style="white-space:pre;stroke:none;fill:rgb(0,0,0);fill-opacity:1;font-size:13.5px;font-family:Arial, Helvetica, sans-serif;font-weight:400;font-style:normal;dominant-baseline:text-before-edge;text-decoration:none solid rgb(0, 0, 0);">iec-checker</text></g></g></g><g><g><g><text x="435.64373779296875" y="366.2000274658203" style="white-space:pre;stroke:none;fill:rgb(0,0,0);fill-opacity:1;font-size:15px;font-family:Arial, Helvetica, sans-serif;font-weight:400;font-style:normal;dominant-baseline:text-before-edge;text-decoration:none solid rgb(0, 0, 0);">Static Analysis</text></g></g></g></svg>
</svg>
